<svg width="158" height="48" viewBox="0 0 158 48" fill="none" xmlns="http://www.w3.org/2000/svg">
<rect x="1.20001" y="1" width="155.633" height="46" rx="8" fill="white" stroke="#CFCFCF"/>
<path fill-rule="evenodd" clip-rule="evenodd" d="M40.6265 22.9514C40.5989 19.6578 43.3221 18.057 43.4417 17.9834C41.8961 15.7386 39.5041 15.4258 38.6669 15.3982C36.6613 15.1866 34.7109 16.6034 33.6897 16.6034C32.6501 16.6034 31.0677 15.4258 29.3749 15.4534C27.1945 15.4902 25.1429 16.7506 24.0297 18.7194C21.7205 22.7214 23.4409 28.6094 25.6581 31.8478C26.7713 33.4302 28.0593 35.2058 29.7613 35.1414C31.4173 35.077 32.0429 34.0834 34.0393 34.0834C36.0265 34.0834 36.6061 35.1414 38.3357 35.1046C40.1205 35.077 41.2337 33.513 42.3101 31.9122C43.5889 30.0998 44.1041 28.3058 44.1225 28.2138C44.0765 28.1954 40.6633 26.889 40.6265 22.9514Z" fill="black"/>
<path fill-rule="evenodd" clip-rule="evenodd" d="M37.3606 13.2728C38.253 12.1596 38.8602 10.6416 38.6946 9.09601C37.4066 9.15121 35.7874 9.98841 34.8582 11.0832C34.0394 12.0492 33.3034 13.6224 33.4874 15.1036C34.941 15.214 36.4314 14.3676 37.3606 13.2728Z" fill="black"/>
<path fill-rule="evenodd" clip-rule="evenodd" d="M60.6919 29.2444L59.5419 25.7024C59.4223 25.3344 59.1923 24.488 58.8611 23.1448H58.8151C58.6771 23.7244 58.4655 24.58 58.1711 25.7024L57.0395 29.2444H60.6919ZM64.657 34.9112H62.3386L61.069 30.9184H56.653L55.4478 34.9112H53.1938L57.5638 21.3228H60.2686L64.657 34.9112Z" fill="black"/>
<path fill-rule="evenodd" clip-rule="evenodd" d="M73.673 29.9703C73.673 29.0135 73.4614 28.2315 73.029 27.6151C72.5598 26.9711 71.925 26.6491 71.1338 26.6491C70.6002 26.6491 70.1126 26.8331 69.671 27.1827C69.2386 27.5415 68.9442 28.0015 68.8154 28.5811C68.751 28.8479 68.7142 29.0687 68.7142 29.2435V30.8811C68.7142 31.5895 68.935 32.1967 69.3674 32.6843C69.7998 33.1719 70.3702 33.4203 71.0694 33.4203C71.8882 33.4203 72.523 33.0983 72.983 32.4727C73.443 31.8379 73.673 31.0099 73.673 29.9703ZM75.8902 29.8969C75.8902 31.5621 75.4394 32.8777 74.5286 33.8437C73.719 34.7085 72.707 35.1317 71.511 35.1317C70.2138 35.1317 69.2846 34.6717 68.7142 33.7425V38.8853H66.5338V28.3329C66.5338 27.2841 66.5062 26.2169 66.451 25.1129H68.3646L68.4842 26.6677H68.521C69.2478 25.4993 70.3518 24.9105 71.8238 24.9105C72.983 24.9105 73.9398 25.3705 74.7126 26.2813C75.5038 27.2013 75.8902 28.3973 75.8902 29.8969Z" fill="black"/>
<path fill-rule="evenodd" clip-rule="evenodd" d="M84.9339 29.9703C84.9339 29.0135 84.7223 28.2315 84.2899 27.6151C83.8207 26.9711 83.1859 26.6491 82.3947 26.6491C81.8611 26.6491 81.3735 26.8331 80.9319 27.1827C80.4995 27.5415 80.2143 28.0015 80.0763 28.5811C80.0119 28.8479 79.9751 29.0687 79.9751 29.2435V30.8811C79.9751 31.5895 80.1959 32.1967 80.6283 32.6843C81.0607 33.1719 81.6311 33.4203 82.3303 33.4203C83.1491 33.4203 83.7931 33.0983 84.2439 32.4727C84.7131 31.8379 84.9339 31.0099 84.9339 29.9703ZM87.1512 29.8969C87.1512 31.5621 86.7004 32.8777 85.7896 33.8437C84.98 34.7085 83.968 35.1317 82.772 35.1317C81.4748 35.1317 80.5456 34.6717 79.9752 33.7425V38.8853H77.7948V28.3329C77.7948 27.2841 77.7672 26.2169 77.712 25.1129H79.6256L79.7452 26.6677H79.782C80.5088 25.4993 81.6128 24.9105 83.0848 24.9105C84.244 24.9105 85.2008 25.3705 85.9736 26.2813C86.7648 27.2013 87.1512 28.3973 87.1512 29.8969Z" fill="black"/>
<path fill-rule="evenodd" clip-rule="evenodd" d="M99.7551 31.1021C99.7551 32.2613 99.3503 33.1997 98.5499 33.9265C97.6667 34.7177 96.4339 35.1133 94.8515 35.1133C93.3887 35.1133 92.2203 34.8281 91.3371 34.2669L91.8431 32.4545C92.7999 33.0157 93.8487 33.3009 94.9895 33.3009C95.8083 33.3009 96.4523 33.1169 96.9031 32.7489C97.3631 32.3809 97.5931 31.8841 97.5931 31.2677C97.5931 30.7157 97.3999 30.2557 97.0319 29.8785C96.6547 29.5013 96.0291 29.1517 95.1551 28.8297C92.7539 27.9373 91.5671 26.6401 91.5671 24.9381C91.5671 23.8249 91.9903 22.9141 92.8275 22.1965C93.6647 21.4881 94.7779 21.1293 96.1671 21.1293C97.3999 21.1293 98.4303 21.3409 99.2491 21.7733L98.6971 23.5397C97.9243 23.1257 97.0595 22.9141 96.0843 22.9141C95.3207 22.9141 94.7135 23.1073 94.2811 23.4753C93.9223 23.8157 93.7383 24.2205 93.7383 24.7081C93.7383 25.2417 93.9499 25.6925 94.3639 26.0329C94.7227 26.3549 95.3851 26.7045 96.3419 27.0817C97.5103 27.5509 98.3659 28.1029 98.9179 28.7377C99.4791 29.3725 99.7551 30.1637 99.7551 31.1021Z" fill="black"/>
<path fill-rule="evenodd" clip-rule="evenodd" d="M106.968 26.7506H104.567V31.507C104.567 32.7122 104.99 33.3194 105.836 33.3194C106.223 33.3194 106.545 33.2826 106.802 33.2182L106.867 34.8742C106.434 35.0306 105.873 35.1134 105.174 35.1134C104.309 35.1134 103.647 34.8466 103.159 34.3222C102.671 33.7978 102.432 32.9146 102.432 31.6818V26.7414H101.006V25.113H102.432V23.319L104.567 22.675V25.113H106.968V26.7506Z" fill="black"/>
<path fill-rule="evenodd" clip-rule="evenodd" d="M115.515 29.9797C115.515 29.0781 115.322 28.3145 114.935 27.6705C114.475 26.8885 113.822 26.5021 112.976 26.5021C112.102 26.5021 111.43 26.8885 110.979 27.6705C110.584 28.3145 110.4 29.0965 110.4 30.0257C110.4 30.9273 110.593 31.7001 110.979 32.3349C111.448 33.1169 112.111 33.5033 112.957 33.5033C113.785 33.5033 114.438 33.1077 114.917 32.3165C115.312 31.6541 115.515 30.8813 115.515 29.9797ZM117.769 29.9337C117.769 31.4425 117.336 32.6753 116.481 33.6413C115.579 34.6349 114.383 35.1317 112.893 35.1317C111.457 35.1317 110.307 34.6533 109.452 33.7057C108.596 32.7581 108.173 31.5529 108.173 30.0993C108.173 28.5813 108.615 27.3393 109.489 26.3733C110.372 25.4073 111.559 24.9197 113.049 24.9197C114.484 24.9197 115.643 25.3981 116.517 26.3549C117.355 27.2749 117.769 28.4709 117.769 29.9337Z" fill="black"/>
<path fill-rule="evenodd" clip-rule="evenodd" d="M124.853 27.0264C124.641 26.9896 124.411 26.9712 124.163 26.9712C123.399 26.9712 122.801 27.2564 122.387 27.836C122.028 28.342 121.844 28.9952 121.844 29.768V34.9108H119.664V28.1948C119.664 27.0632 119.645 26.0328 119.599 25.1128H121.495L121.577 26.9896H121.642C121.872 26.3456 122.231 25.8212 122.727 25.4348C123.215 25.0852 123.739 24.9104 124.301 24.9104C124.503 24.9104 124.687 24.9288 124.843 24.9472L124.853 27.0264Z" fill="black"/>
<path fill-rule="evenodd" clip-rule="evenodd" d="M132.507 28.9864C132.525 28.3424 132.378 27.7812 132.084 27.312C131.707 26.7048 131.127 26.4012 130.354 26.4012C129.646 26.4012 129.066 26.6956 128.625 27.2844C128.266 27.7536 128.045 28.324 127.981 28.9772L132.507 28.9864ZM134.586 29.5477C134.586 29.9341 134.559 30.2653 134.504 30.5321H127.971C127.999 31.4981 128.312 32.2433 128.919 32.7493C129.471 33.2001 130.179 33.4301 131.053 33.4301C132.019 33.4301 132.903 33.2737 133.694 32.9701L134.034 34.4789C133.105 34.8837 132.01 35.0861 130.75 35.0861C129.232 35.0861 128.036 34.6353 127.171 33.7429C126.306 32.8505 125.874 31.6453 125.874 30.1457C125.874 28.6737 126.279 27.4409 127.088 26.4565C127.935 25.4077 129.076 24.8833 130.511 24.8833C131.918 24.8833 132.995 25.4077 133.712 26.4565C134.292 27.3029 134.586 28.3241 134.586 29.5477Z" fill="black"/>
<mask id="mask0_9_138" style="mask-type:alpha" maskUnits="userSpaceOnUse" x="1" y="1" width="156" height="46">
<path fill-rule="evenodd" clip-rule="evenodd" d="M1.20001 47H156.45V1H1.20001V47Z" fill="white"/>
</mask>
<g mask="url(#mask0_9_138)">
</g>
<path d="M61.04 14.146H59.591C59.051 14.713 58.583 14.929 57.944 14.929C56.72 14.929 55.712 13.903 55.712 12.661C55.712 11.41 56.648 10.42 57.917 10.42C58.691 10.42 59.213 10.672 59.663 11.257H61.04C60.455 9.97 59.258 9.232 57.89 9.232C56.009 9.232 54.47 10.771 54.47 12.652C54.47 14.569 56.027 16.117 57.971 16.117C59.33 16.117 60.518 15.361 61.04 14.146ZM68.5935 13.543C68.5935 12.058 67.4325 10.897 65.9295 10.897C64.4805 10.897 63.2925 12.076 63.2925 13.507C63.2925 14.947 64.4805 16.117 65.9385 16.117C67.3875 16.117 68.5935 14.947 68.5935 13.543ZM67.3875 13.507C67.3875 14.344 66.7395 15.019 65.9475 15.019C65.1375 15.019 64.4985 14.344 64.4985 13.489C64.4985 12.67 65.1555 11.995 65.9385 11.995C66.7395 11.995 67.3875 12.679 67.3875 13.507ZM78.5443 16V13.12C78.5443 11.626 77.8423 10.897 76.5283 10.897C75.8263 10.897 75.3313 11.131 74.9263 11.671C74.5843 11.131 74.1433 10.897 73.4593 10.897C72.8743 10.897 72.5143 11.059 72.1633 11.482V11.014H71.0653V16H72.2623V13.543C72.2623 12.364 72.5413 11.995 73.2343 11.995C73.8643 11.995 74.2063 12.283 74.2063 13.264V16H75.4033V13.543C75.4033 12.355 75.7453 11.995 76.4113 11.995C76.9693 11.995 77.3473 12.265 77.3473 13.264V16H78.5443ZM82.5262 16V11.014H81.3292V16H82.5262ZM82.5352 10.294V9.097H81.3382V10.294H82.5352ZM89.7193 16V13.327C89.7193 12.436 89.6293 12.004 89.3593 11.617C89.0353 11.149 88.4953 10.897 87.8023 10.897C87.2353 10.897 86.8393 11.068 86.3983 11.491V11.014H85.2913V16H86.4883V13.651C86.4883 12.985 86.5333 12.697 86.6863 12.454C86.8753 12.157 87.1903 11.995 87.5683 11.995C88.1623 11.995 88.5223 12.229 88.5223 13.561V16H89.7193ZM97.5008 15.055V11.014H96.3578V11.644C95.9888 11.14 95.4488 10.897 94.7288 10.897C93.3158 10.897 92.2718 11.995 92.2718 13.471C92.2718 15.01 93.2978 16.117 94.7198 16.117C95.4218 16.117 95.8898 15.892 96.3578 15.343C96.3128 16.414 95.8538 16.936 94.9628 16.936C94.4048 16.936 94.0628 16.792 93.7118 16.405H92.3528C92.7578 17.404 93.6938 17.989 94.9178 17.989C96.4658 17.989 97.5008 17.197 97.5008 15.055ZM96.3038 13.525C96.3038 14.425 95.7368 15.019 94.8818 15.019C94.0268 15.019 93.4778 14.434 93.4778 13.525C93.4778 12.607 94.0268 11.995 94.8638 11.995C95.7188 11.995 96.3038 12.616 96.3038 13.525ZM107.846 14.416C107.846 13.678 107.504 13.282 106.46 12.958C105.641 12.697 105.614 12.679 105.614 12.418C105.614 12.175 105.812 11.995 106.073 11.995C106.325 11.995 106.487 12.13 106.541 12.391H107.711C107.666 11.455 106.919 10.897 106.073 10.897C105.146 10.897 104.417 11.563 104.417 12.418C104.417 13.147 104.813 13.561 105.803 13.894C106.604 14.164 106.649 14.245 106.649 14.533C106.649 14.812 106.415 15.019 106.109 15.019C105.758 15.019 105.56 14.839 105.443 14.416H104.237C104.363 15.577 105.074 16.117 106.064 16.117C107.063 16.117 107.846 15.37 107.846 14.416ZM115.401 13.543C115.401 12.058 114.24 10.897 112.737 10.897C111.288 10.897 110.1 12.076 110.1 13.507C110.1 14.947 111.288 16.117 112.746 16.117C114.195 16.117 115.401 14.947 115.401 13.543ZM114.195 13.507C114.195 14.344 113.547 15.019 112.755 15.019C111.945 15.019 111.306 14.344 111.306 13.489C111.306 12.67 111.963 11.995 112.746 11.995C113.547 11.995 114.195 12.679 114.195 13.507ZM122.957 13.543C122.957 12.058 121.796 10.897 120.293 10.897C118.844 10.897 117.656 12.076 117.656 13.507C117.656 14.947 118.844 16.117 120.302 16.117C121.751 16.117 122.957 14.947 122.957 13.543ZM121.751 13.507C121.751 14.344 121.103 15.019 120.311 15.019C119.501 15.019 118.862 14.344 118.862 13.489C118.862 12.67 119.519 11.995 120.302 11.995C121.103 11.995 121.751 12.679 121.751 13.507ZM129.857 16V13.327C129.857 12.436 129.767 12.004 129.497 11.617C129.173 11.149 128.633 10.897 127.94 10.897C127.373 10.897 126.977 11.068 126.536 11.491V11.014H125.429V16H126.626V13.651C126.626 12.985 126.671 12.697 126.824 12.454C127.013 12.157 127.328 11.995 127.706 11.995C128.3 11.995 128.66 12.229 128.66 13.561V16H129.857Z" fill="black"/>
</svg>
