<svg width="156" height="46" viewBox="0 0 156 46" fill="none" xmlns="http://www.w3.org/2000/svg">
<mask id="mask0_9_137" style="mask-type:alpha" maskUnits="userSpaceOnUse" x="0" y="0" width="156" height="46">
<path fill-rule="evenodd" clip-rule="evenodd" d="M0 6.10352e-05H155.25V46H0V6.10352e-05Z" fill="white"/>
</mask>
<g mask="url(#mask0_9_137)">
<path fill-rule="evenodd" clip-rule="evenodd" d="M149.5 46.0001H5.75C2.53 46.0001 0 43.4701 0 40.2501V5.75006C0 2.53006 2.53 6.10352e-05 5.75 6.10352e-05H149.5C152.72 6.10352e-05 155.25 2.53006 155.25 5.75006V40.2501C155.25 43.4701 152.72 46.0001 149.5 46.0001Z" fill="#262626"/>
</g>
<mask id="mask1_9_137" style="mask-type:alpha" maskUnits="userSpaceOnUse" x="0" y="0" width="156" height="46">
<path fill-rule="evenodd" clip-rule="evenodd" d="M0 46H155.25V0H0V46Z" fill="white"/>
</mask>
<g mask="url(#mask1_9_137)">
<path fill-rule="evenodd" clip-rule="evenodd" d="M122.935 34.5H125.12V20.125H122.935V34.5ZM142.255 25.3L139.84 31.51H139.725L137.195 25.3H134.895L138.69 34.04L136.505 38.87H138.69L144.555 25.3H142.255ZM130.18 32.8896C129.49 32.8896 128.455 32.5446 128.455 31.6246C128.455 30.4746 129.72 30.1296 130.755 30.1296C131.675 30.1296 132.135 30.3596 132.71 30.5896C132.48 31.9696 131.33 32.8896 130.18 32.8896ZM130.41 24.9546C128.8 24.9546 127.19 25.6446 126.615 27.1396L128.57 27.9446C129.03 27.1396 129.72 26.9096 130.525 26.9096C131.675 26.9096 132.71 27.5996 132.825 28.7496V28.8646C132.48 28.6346 131.56 28.2896 130.64 28.2896C128.57 28.2896 126.5 29.4396 126.5 31.5096C126.5 33.4646 128.225 34.7296 130.065 34.7296C131.56 34.7296 132.25 34.0396 132.825 33.3496H132.94V34.4996H135.01V28.9796C134.78 26.4496 132.825 24.9546 130.41 24.9546ZM117.185 27.0246H114.08V22.0796H117.185C118.795 22.0796 119.715 23.4596 119.715 24.4946C119.6 25.7596 118.68 27.0246 117.185 27.0246ZM117.07 20.125H111.895V34.5H114.08V29.095H117.07C119.485 29.095 121.785 27.37 121.785 24.61C121.785 21.85 119.485 20.125 117.07 20.125ZM89.01 32.8895C87.515 32.8895 86.25 31.6245 86.25 29.8995C86.25 28.1745 87.515 26.9095 89.01 26.9095C90.505 26.9095 91.655 28.1745 91.655 29.8995C91.655 31.6245 90.505 32.8895 89.01 32.8895ZM91.5403 26.1046C90.9653 25.5296 90.0453 24.9546 88.8953 24.9546C86.4803 24.9546 84.1803 27.1396 84.1803 29.8996C84.1803 32.6596 86.3653 34.7296 88.8953 34.7296C90.0453 34.7296 90.9653 34.1546 91.4253 33.5796H91.5403V34.2696C91.5403 36.1096 90.5053 37.1446 88.8953 37.1446C87.6303 37.1446 86.7103 36.2246 86.4803 35.4196L84.6403 36.2246C85.2153 37.4896 86.5953 39.0996 89.0103 39.0996C91.5403 39.0996 93.6103 37.6046 93.6103 34.0396V25.2996H91.5403V26.1046ZM94.9901 34.5H97.1751V20.125H94.9901V34.5ZM100.395 29.7845C100.395 27.9445 101.89 26.9095 102.925 26.9095C103.73 26.9095 104.535 27.3695 104.765 27.9445L100.395 29.7845ZM107.065 28.1751C106.605 27.0251 105.455 25.0701 102.925 25.0701C100.395 25.0701 98.325 27.0251 98.325 30.0151C98.325 32.7751 100.395 34.9601 103.155 34.9601C105.34 34.9601 106.72 33.5801 107.18 32.7751L105.57 31.6251C104.995 32.4301 104.305 33.0051 103.155 33.0051C102.005 33.0051 101.315 32.5451 100.74 31.5101L107.295 28.7501L107.065 28.1751ZM54.8551 26.5648V28.6348H59.8001C59.6851 29.7848 59.2251 30.7048 58.6501 31.2798C57.9601 31.9698 56.8101 32.7748 54.8551 32.7748C51.7501 32.7748 49.4501 30.3598 49.4501 27.2548C49.4501 24.1498 51.8651 21.7348 54.8551 21.7348C56.4651 21.7348 57.7301 22.4248 58.6501 23.2298L60.1451 21.7348C58.8801 20.5848 57.2701 19.6648 54.9701 19.6648C50.8301 19.6648 47.2651 23.1148 47.2651 27.2548C47.2651 31.3948 50.8301 34.8448 54.9701 34.8448C57.2701 34.8448 58.8801 34.1548 60.2601 32.6598C61.6401 31.2798 62.1001 29.3248 62.1001 27.8298C62.1001 27.3698 62.1001 26.9098 61.9851 26.5648H54.8551ZM67.62 32.8895C66.125 32.8895 64.86 31.6245 64.86 29.8995C64.86 28.1745 66.125 26.9095 67.62 26.9095C69.115 26.9095 70.38 28.0595 70.38 29.8995C70.38 31.6245 69.115 32.8895 67.62 32.8895ZM67.62 25.0701C64.86 25.0701 62.675 27.1401 62.675 30.0151C62.675 32.7751 64.86 34.9601 67.62 34.9601C70.38 34.9601 72.565 32.8901 72.565 30.0151C72.565 27.0251 70.38 25.0701 67.62 25.0701ZM78.3153 32.8895C76.8203 32.8895 75.5553 31.6245 75.5553 29.8995C75.5553 28.1745 76.8203 26.9095 78.3153 26.9095C79.8103 26.9095 81.0753 28.0595 81.0753 29.8995C81.0753 31.6245 79.8103 32.8895 78.3153 32.8895ZM78.3152 25.0701C75.5552 25.0701 73.3702 27.1401 73.3702 30.0151C73.3702 32.7751 75.5552 34.9601 78.3152 34.9601C81.0752 34.9601 83.2602 32.8901 83.2602 30.0151C83.2602 27.0251 81.0752 25.0701 78.3152 25.0701Z" fill="white"/>
</g>
<mask id="mask2_9_137" style="mask-type:alpha" maskUnits="userSpaceOnUse" x="11" y="8" width="16" height="30">
<path fill-rule="evenodd" clip-rule="evenodd" d="M11.5 10.2348V35.6498C11.5 36.34 11.73 36.9148 12.075 37.2598L12.19 37.375L26.45 23.115V22.8848L11.96 8.625C11.615 8.96977 11.5 9.54477 11.5 10.2348Z" fill="white"/>
</mask>
<g mask="url(#mask2_9_137)">
<path fill-rule="evenodd" clip-rule="evenodd" d="M11.5 10.2348V35.6498C11.5 36.34 11.73 36.9148 12.075 37.2598L12.19 37.375L26.45 23.115V22.8848L11.96 8.625C11.615 8.96977 11.5 9.54477 11.5 10.2348Z" fill="#32BBFF"/>
</g>
<mask id="mask3_9_137" style="mask-type:alpha" maskUnits="userSpaceOnUse" x="26" y="18" width="13" height="10">
<path fill-rule="evenodd" clip-rule="evenodd" d="M26.3348 22.8842V23.2292L31.0498 27.9442L36.7998 24.8392C38.4098 23.9192 38.4098 22.4242 36.7998 21.5039L31.1648 18.2842L31.0498 18.1689L26.3348 22.8842Z" fill="white"/>
</mask>
<g mask="url(#mask3_9_137)">
<path fill-rule="evenodd" clip-rule="evenodd" d="M26.3348 22.8842V23.2292L31.0498 27.9442L36.7998 24.8392C38.4098 23.9192 38.4098 22.4242 36.7998 21.5039L31.1648 18.2842L31.0498 18.1689L26.3348 22.8842Z" fill="#FFD500"/>
</g>
<mask id="mask4_9_137" style="mask-type:alpha" maskUnits="userSpaceOnUse" x="11" y="23" width="21" height="15">
<path fill-rule="evenodd" clip-rule="evenodd" d="M11.9598 37.3752C12.5348 37.95 13.3398 37.95 14.3748 37.49L31.1648 27.83L26.3348 23L11.9598 37.3752Z" fill="white"/>
</mask>
<g mask="url(#mask4_9_137)">
<path fill-rule="evenodd" clip-rule="evenodd" d="M11.9598 37.3752C12.5348 37.95 13.3398 37.95 14.3748 37.49L31.1648 27.83L26.3348 23L11.9598 37.3752Z" fill="url(#paint0_linear_9_137)"/>
</g>
<mask id="mask5_9_137" style="mask-type:alpha" maskUnits="userSpaceOnUse" x="11" y="8" width="21" height="15">
<path fill-rule="evenodd" clip-rule="evenodd" d="M11.9598 8.73956L26.3348 22.9996L31.1648 18.1696L14.3748 8.62479C13.9084 8.36558 13.4888 8.24667 13.116 8.24667C12.6611 8.24644 12.2758 8.42354 11.9598 8.73956Z" fill="white"/>
</mask>
<g mask="url(#mask5_9_137)">
<path fill-rule="evenodd" clip-rule="evenodd" d="M11.9598 8.73956L26.3348 22.9996L31.1648 18.1696L14.3748 8.62479C13.9084 8.36558 13.4888 8.24667 13.116 8.24667C12.6611 8.24644 12.2758 8.42354 11.9598 8.73956Z" fill="#29CC5E"/>
</g>
<path fill-rule="evenodd" clip-rule="evenodd" d="M31.0499 27.7148L14.3749 37.1448C13.4549 37.7198 12.6499 37.6048 12.0749 37.1448L11.9599 37.2598L12.0749 37.3748C12.6499 37.8348 13.4549 37.9498 14.3749 37.3748L31.0499 27.7148Z" fill="black"/>
<path fill-rule="evenodd" clip-rule="evenodd" d="M36.8 24.4949L31.05 27.7149L31.165 27.8299L36.8 24.6099C37.605 24.1499 37.95 23.5749 37.95 22.9999C37.95 23.5749 37.49 24.0349 36.8 24.4949ZM11.96 37.1451C11.615 36.8001 11.5 36.2251 11.5 35.5351V35.6501C11.5 36.3401 11.73 36.9151 12.075 37.2601V37.1451H11.96Z" fill="black"/>
<path fill-rule="evenodd" clip-rule="evenodd" d="M14.375 8.73982L36.8 21.5048C37.49 21.9648 37.95 22.4248 37.95 22.9998C37.95 22.4248 37.605 21.8498 36.8 21.3898L14.375 8.62482C12.765 7.70482 11.5 8.39482 11.5 10.2348V10.3498C11.5 8.62482 12.765 7.81982 14.375 8.73982Z" fill="white"/>
<path d="M55.84 12.146H54.391C53.851 12.713 53.383 12.929 52.744 12.929C51.52 12.929 50.512 11.903 50.512 10.661C50.512 9.41 51.448 8.42 52.717 8.42C53.491 8.42 54.013 8.672 54.463 9.257H55.84C55.255 7.97 54.058 7.232 52.69 7.232C50.809 7.232 49.27 8.771 49.27 10.652C49.27 12.569 50.827 14.117 52.771 14.117C54.13 14.117 55.318 13.361 55.84 12.146ZM63.3935 11.543C63.3935 10.058 62.2325 8.897 60.7295 8.897C59.2805 8.897 58.0925 10.076 58.0925 11.507C58.0925 12.947 59.2805 14.117 60.7385 14.117C62.1875 14.117 63.3935 12.947 63.3935 11.543ZM62.1875 11.507C62.1875 12.344 61.5395 13.019 60.7475 13.019C59.9375 13.019 59.2985 12.344 59.2985 11.489C59.2985 10.67 59.9555 9.995 60.7385 9.995C61.5395 9.995 62.1875 10.679 62.1875 11.507ZM73.3443 14V11.12C73.3443 9.626 72.6423 8.897 71.3283 8.897C70.6263 8.897 70.1313 9.131 69.7263 9.671C69.3843 9.131 68.9433 8.897 68.2593 8.897C67.6743 8.897 67.3143 9.059 66.9633 9.482V9.014H65.8653V14H67.0623V11.543C67.0623 10.364 67.3413 9.995 68.0343 9.995C68.6643 9.995 69.0063 10.283 69.0063 11.264V14H70.2033V11.543C70.2033 10.355 70.5453 9.995 71.2113 9.995C71.7693 9.995 72.1473 10.265 72.1473 11.264V14H73.3443ZM77.3262 14V9.014H76.1292V14H77.3262ZM77.3352 8.294V7.097H76.1382V8.294H77.3352ZM84.5193 14V11.327C84.5193 10.436 84.4293 10.004 84.1593 9.617C83.8353 9.149 83.2953 8.897 82.6023 8.897C82.0353 8.897 81.6393 9.068 81.1983 9.491V9.014H80.0913V14H81.2883V11.651C81.2883 10.985 81.3333 10.697 81.4863 10.454C81.6753 10.157 81.9903 9.995 82.3683 9.995C82.9623 9.995 83.3223 10.229 83.3223 11.561V14H84.5193ZM92.3008 13.055V9.014H91.1578V9.644C90.7888 9.14 90.2488 8.897 89.5288 8.897C88.1158 8.897 87.0718 9.995 87.0718 11.471C87.0718 13.01 88.0978 14.117 89.5198 14.117C90.2218 14.117 90.6898 13.892 91.1578 13.343C91.1128 14.414 90.6538 14.936 89.7628 14.936C89.2048 14.936 88.8628 14.792 88.5118 14.405H87.1528C87.5578 15.404 88.4938 15.989 89.7178 15.989C91.2658 15.989 92.3008 15.197 92.3008 13.055ZM91.1038 11.525C91.1038 12.425 90.5368 13.019 89.6818 13.019C88.8268 13.019 88.2778 12.434 88.2778 11.525C88.2778 10.607 88.8268 9.995 89.6638 9.995C90.5188 9.995 91.1038 10.616 91.1038 11.525ZM102.646 12.416C102.646 11.678 102.304 11.282 101.26 10.958C100.441 10.697 100.414 10.679 100.414 10.418C100.414 10.175 100.612 9.995 100.873 9.995C101.125 9.995 101.287 10.13 101.341 10.391H102.511C102.466 9.455 101.719 8.897 100.873 8.897C99.9456 8.897 99.2166 9.563 99.2166 10.418C99.2166 11.147 99.6126 11.561 100.603 11.894C101.404 12.164 101.449 12.245 101.449 12.533C101.449 12.812 101.215 13.019 100.909 13.019C100.558 13.019 100.36 12.839 100.243 12.416H99.0366C99.1626 13.577 99.8736 14.117 100.864 14.117C101.863 14.117 102.646 13.37 102.646 12.416ZM110.2 11.543C110.2 10.058 109.039 8.897 107.536 8.897C106.087 8.897 104.899 10.076 104.899 11.507C104.899 12.947 106.087 14.117 107.545 14.117C108.994 14.117 110.2 12.947 110.2 11.543ZM108.994 11.507C108.994 12.344 108.346 13.019 107.554 13.019C106.744 13.019 106.105 12.344 106.105 11.489C106.105 10.67 106.762 9.995 107.545 9.995C108.346 9.995 108.994 10.679 108.994 11.507ZM117.757 11.543C117.757 10.058 116.596 8.897 115.093 8.897C113.644 8.897 112.456 10.076 112.456 11.507C112.456 12.947 113.644 14.117 115.102 14.117C116.551 14.117 117.757 12.947 117.757 11.543ZM116.551 11.507C116.551 12.344 115.903 13.019 115.111 13.019C114.301 13.019 113.662 12.344 113.662 11.489C113.662 10.67 114.319 9.995 115.102 9.995C115.903 9.995 116.551 10.679 116.551 11.507ZM124.657 14V11.327C124.657 10.436 124.567 10.004 124.297 9.617C123.973 9.149 123.433 8.897 122.74 8.897C122.173 8.897 121.777 9.068 121.336 9.491V9.014H120.229V14H121.426V11.651C121.426 10.985 121.471 10.697 121.624 10.454C121.813 10.157 122.128 9.995 122.506 9.995C123.1 9.995 123.46 10.229 123.46 11.561V14H124.657Z" fill="white"/>
<defs>
<linearGradient id="paint0_linear_9_137" x1="11.582" y1="15.5279" x2="-6.77801" y2="46.3525" gradientUnits="userSpaceOnUse">
<stop stop-color="#FF3A44"/>
<stop offset="1" stop-color="#C31162"/>
</linearGradient>
</defs>
</svg>
