<svg width="171" height="40" viewBox="0 0 171 40" fill="none" xmlns="http://www.w3.org/2000/svg">
<path d="M7.79297 32.3076C5.75195 32.3076 4.07227 31.7559 2.75391 30.6523C1.44531 29.5488 0.74707 27.8545 0.65918 25.5693L0.688477 25.4814H4.18945C4.24805 26.8975 4.56543 27.9082 5.1416 28.5137C5.71777 29.1094 6.51367 29.4072 7.5293 29.4072C8.53516 29.4072 9.32129 29.085 9.8877 28.4404C10.4541 27.7959 10.7373 26.8975 10.7373 25.7451V13.3818L7.88086 12.957V10.6719H16.7578V12.9424L14.4287 13.3818V25.7451C14.4287 27.7471 13.8574 29.3438 12.7148 30.5352C11.582 31.7168 9.94141 32.3076 7.79297 32.3076ZM25.7812 32.3076C24.2578 32.3076 22.9492 31.9658 21.8555 31.2822C20.7617 30.5889 19.9219 29.6367 19.3359 28.4258C18.75 27.2148 18.457 25.8184 18.457 24.2363V23.9287C18.457 22.3564 18.75 20.9648 19.3359 19.7539C19.9219 18.543 20.7617 17.5908 21.8555 16.8975C22.9492 16.2041 24.248 15.8574 25.752 15.8574C27.2754 15.8574 28.584 16.2041 29.6777 16.8975C30.7715 17.5811 31.6113 18.5332 32.1973 19.7539C32.7832 20.9648 33.0762 22.3564 33.0762 23.9287V24.2363C33.0762 25.8281 32.7832 27.2295 32.1973 28.4404C31.6113 29.6514 30.7715 30.5986 29.6777 31.2822C28.5938 31.9658 27.2949 32.3076 25.7812 32.3076ZM25.7812 29.4658C27.002 29.4658 27.9102 28.9824 28.5059 28.0156C29.1016 27.0391 29.3994 25.7793 29.3994 24.2363V23.9287C29.3994 22.415 29.0967 21.1699 28.4912 20.1934C27.8955 19.207 26.9824 18.7139 25.752 18.7139C24.5312 18.7139 23.623 19.207 23.0273 20.1934C22.4414 21.1699 22.1484 22.415 22.1484 23.9287V24.2363C22.1484 25.7793 22.4414 27.0391 23.0273 28.0156C23.623 28.9824 24.541 29.4658 25.7812 29.4658ZM43.8721 32.3076C42.8662 32.3076 42.002 32.1123 41.2793 31.7217C40.5566 31.3311 39.9512 30.7646 39.4629 30.0225L39.1699 32H35.9912V11.8584L33.6621 11.4189V9.14844H39.668V17.9082C40.1465 17.2539 40.7324 16.751 41.4258 16.3994C42.1289 16.0381 42.9443 15.8574 43.8721 15.8574C45.1611 15.8574 46.2598 16.209 47.168 16.9121C48.0762 17.6055 48.7695 18.582 49.248 19.8418C49.7266 21.1016 49.9658 22.5811 49.9658 24.2803V24.5879C49.9658 26.9121 49.4287 28.7822 48.3545 30.1982C47.29 31.6045 45.7959 32.3076 43.8721 32.3076ZM42.8027 29.3926C44.0137 29.3926 44.8926 28.9678 45.4395 28.1182C45.9961 27.2588 46.2744 26.082 46.2744 24.5879V24.2803C46.2744 22.6104 45.9961 21.2773 45.4395 20.2812C44.8828 19.2754 44.0088 18.7725 42.8174 18.7725C42.0752 18.7725 41.4404 18.9531 40.9131 19.3145C40.3955 19.666 39.9805 20.1445 39.668 20.75V27.5176C39.9902 28.1133 40.415 28.5771 40.9424 28.9092C41.4697 29.2314 42.0898 29.3926 42.8027 29.3926ZM60.9521 32.3076C59.9463 32.3076 59.082 32.1123 58.3594 31.7217C57.6367 31.3311 57.0312 30.7646 56.543 30.0225L56.25 32H53.0713V11.8584L50.7422 11.4189V9.14844H56.748V17.9082C57.2266 17.2539 57.8125 16.751 58.5059 16.3994C59.209 16.0381 60.0244 15.8574 60.9521 15.8574C62.2412 15.8574 63.3398 16.209 64.248 16.9121C65.1562 17.6055 65.8496 18.582 66.3281 19.8418C66.8066 21.1016 67.0459 22.5811 67.0459 24.2803V24.5879C67.0459 26.9121 66.5088 28.7822 65.4346 30.1982C64.3701 31.6045 62.876 32.3076 60.9521 32.3076ZM59.8828 29.3926C61.0938 29.3926 61.9727 28.9678 62.5195 28.1182C63.0762 27.2588 63.3545 26.082 63.3545 24.5879V24.2803C63.3545 22.6104 63.0762 21.2773 62.5195 20.2812C61.9629 19.2754 61.0889 18.7725 59.8975 18.7725C59.1553 18.7725 58.5205 18.9531 57.9932 19.3145C57.4756 19.666 57.0605 20.1445 56.748 20.75V27.5176C57.0703 28.1133 57.4951 28.5771 58.0225 28.9092C58.5498 29.2314 59.1699 29.3926 59.8828 29.3926ZM76.9189 32.3076C75.415 32.3076 74.1113 31.9756 73.0078 31.3115C71.9043 30.6377 71.0449 29.71 70.4297 28.5283C69.8242 27.3467 69.5215 25.9941 69.5215 24.4707V23.8555C69.5215 22.3125 69.8193 20.9404 70.415 19.7393C71.0205 18.5283 71.8457 17.5811 72.8906 16.8975C73.9453 16.2041 75.1514 15.8574 76.5088 15.8574C78.6475 15.8574 80.2734 16.4922 81.3867 17.7617C82.5098 19.0312 83.0713 20.7744 83.0713 22.9912V25.1006H73.3447L73.3154 25.1738C73.374 26.4238 73.7354 27.4541 74.3994 28.2646C75.0635 29.0654 76.0107 29.4658 77.2412 29.4658C78.1006 29.4658 78.8818 29.3486 79.585 29.1143C80.2881 28.8799 80.9424 28.5479 81.5479 28.1182L82.6904 30.4326C82.0654 30.9697 81.2695 31.4189 80.3027 31.7803C79.3457 32.1318 78.2178 32.3076 76.9189 32.3076ZM73.4033 22.5078H79.541V22.127C79.541 21.0918 79.2969 20.252 78.8086 19.6074C78.3301 18.9629 77.5781 18.6406 76.5527 18.6406C75.6543 18.6406 74.9268 19.002 74.3701 19.7246C73.8232 20.4473 73.4863 21.3506 73.3594 22.4346L73.4033 22.5078ZM85.3418 32V29.7441L87.5244 29.3047V18.8604L85.21 18.4209V16.1504H90.9229L91.1133 18.1426L91.1426 18.4648C91.9922 16.7266 93.2227 15.8574 94.834 15.8574C95.4395 15.8574 95.9814 15.9355 96.46 16.0918L96.0352 19.5049L93.9697 19.3877C93.2959 19.3486 92.7393 19.4805 92.2998 19.7832C91.8604 20.0859 91.499 20.5059 91.2158 21.043V29.3047L93.4131 29.7441V32H85.3418ZM97.9248 32V29.7441L100.137 29.3047V18.8604L97.8076 18.4209V16.1504H103.521L103.696 18.2305C104.204 17.4785 104.849 16.8975 105.63 16.4873C106.411 16.0674 107.314 15.8574 108.34 15.8574C109.375 15.8574 110.259 16.0918 110.991 16.5605C111.733 17.0195 112.295 17.7178 112.676 18.6553C113.164 17.7861 113.804 17.1025 114.595 16.6045C115.396 16.1064 116.333 15.8574 117.407 15.8574C118.989 15.8574 120.239 16.3994 121.157 17.4834C122.075 18.5674 122.534 20.208 122.534 22.4053V29.3047L124.746 29.7441V32H116.763V29.7441L118.843 29.3047V22.376C118.843 21.0479 118.618 20.1152 118.169 19.5781C117.72 19.041 117.061 18.7725 116.191 18.7725C115.381 18.7725 114.712 19.0312 114.185 19.5488C113.667 20.0566 113.33 20.7158 113.174 21.5264V29.3047L115.181 29.7441V32H107.49V29.7441L109.497 29.3047V22.376C109.497 21.0967 109.268 20.1787 108.809 19.6221C108.35 19.0557 107.686 18.7725 106.816 18.7725C106.094 18.7725 105.483 18.9189 104.985 19.2119C104.497 19.5049 104.106 19.9199 103.813 20.457V29.3047L105.894 29.7441V32H97.9248ZM131.704 32.3076C130.093 32.3076 128.838 31.8926 127.939 31.0625C127.041 30.2324 126.592 29.0898 126.592 27.6348C126.592 26.1406 127.197 24.9297 128.408 24.002C129.629 23.0742 131.377 22.6104 133.652 22.6104H136.069V21.2773C136.069 20.4375 135.815 19.7686 135.308 19.2705C134.81 18.7725 134.082 18.5234 133.125 18.5234C132.578 18.5234 132.095 18.5918 131.675 18.7285C131.255 18.8555 130.879 19.041 130.547 19.2852L130.225 21.4238H127.5L127.471 17.5127C128.242 16.9951 129.106 16.5898 130.063 16.2969C131.03 16.0039 132.1 15.8574 133.271 15.8574C135.283 15.8574 136.865 16.3311 138.018 17.2783C139.18 18.2256 139.761 19.5732 139.761 21.3213V28.3086C139.761 28.5234 139.761 28.7334 139.761 28.9385C139.771 29.1338 139.785 29.334 139.805 29.5391L141.416 29.7441V32H136.597C136.499 31.6582 136.406 31.3262 136.318 31.0039C136.24 30.6816 136.182 30.3594 136.143 30.0371C135.615 30.7012 134.976 31.248 134.224 31.6777C133.472 32.0977 132.632 32.3076 131.704 32.3076ZM132.539 29.4512C133.291 29.4512 133.984 29.2803 134.619 28.9385C135.264 28.5869 135.747 28.1475 136.069 27.6201V24.9688H133.608C132.505 24.9688 131.67 25.2275 131.104 25.7451C130.547 26.2529 130.269 26.8486 130.269 27.5322C130.269 28.8115 131.025 29.4512 132.539 29.4512ZM143.159 32V29.7441L145.356 29.3047V18.8604L143.042 18.4209V16.1504H148.755L148.945 18.4502C149.473 17.6299 150.127 16.9951 150.908 16.5459C151.699 16.0869 152.593 15.8574 153.589 15.8574C155.22 15.8574 156.489 16.3604 157.397 17.3662C158.306 18.3721 158.76 19.9346 158.76 22.0537V29.3047L160.957 29.7441V32H153.003V29.7441L155.068 29.3047V22.083C155.068 20.8818 154.829 20.0322 154.351 19.5342C153.872 19.0264 153.159 18.7725 152.212 18.7725C151.509 18.7725 150.889 18.9336 150.352 19.2559C149.814 19.5684 149.38 20.0078 149.048 20.5742V29.3047L151.055 29.7441V32H143.159Z" fill="white"/>
<circle cx="168" cy="29" r="3" fill="#4168C5"/>
</svg>
